<svg version="1.1" id="Layer_1" xmlns="http://www.w3.org/2000/svg" xmlns:xlink="http://www.w3.org/1999/xlink" x="0px" y="0px"
	 width="100%" viewBox="0 0 1024 576" enable-background="new 0 0 1024 576" xml:space="preserve">
<path fill="#000000" opacity="1.000000" stroke="none" 
	d="
M525.834351,300.243835 
	C526.521851,305.031067 523.698730,308.263733 521.159363,311.401520 
	C511.817413,322.944916 495.095337,326.565308 481.247650,320.286163 
	C467.512939,314.058228 459.893097,298.825348 462.574402,282.956390 
	C465.300415,266.822968 478.427948,255.475449 494.932617,254.985748 
	C510.461700,254.524979 524.319214,265.507599 527.858643,281.080017 
	C527.932434,281.404724 528.029663,281.724762 528.089355,282.051819 
	C530.115906,293.146484 529.118408,294.367065 518.026367,294.367645 
	C505.892059,294.368317 493.757751,294.367798 481.051361,294.367798 
	C481.214233,299.668549 483.616150,303.101074 487.599335,305.079254 
	C493.317688,307.919159 499.816345,308.471588 504.466797,303.912262 
	C508.808594,299.655579 513.409485,299.561462 518.539246,299.696503 
	C520.862549,299.757629 523.183350,299.910950 525.834351,300.243835 
M500.413971,281.840393 
	C503.415710,281.484650 506.655090,282.709015 509.453247,280.706757 
	C506.919739,273.587555 501.410553,270.423187 493.258057,271.234039 
	C487.011139,271.855408 483.108795,275.335297 482.033905,281.838928 
	C487.901093,281.838928 493.671417,281.838928 500.413971,281.840393 
z"/>
<path fill="#000000" opacity="1.000000" stroke="none" 
	d="
M727.998901,304.750183 
	C720.280762,318.592926 705.929077,325.548065 690.828003,323.021667 
	C675.446655,320.448395 664.730103,309.516632 662.173096,293.791473 
	C659.005554,274.311493 673.384888,256.523560 694.615784,255.182526 
	C714.118042,253.950653 730.214600,267.101257 731.413513,286.496063 
	C731.799866,292.745667 731.103638,298.775665 727.998901,304.750183 
M712.695251,285.146698 
	C709.924561,275.658936 701.982666,270.646973 693.038025,272.741486 
	C684.342712,274.777618 679.010498,282.990509 680.485352,292.075500 
	C681.986511,301.321869 689.029541,306.615173 698.792603,305.834534 
	C708.420593,305.064667 713.502380,297.854462 712.695251,285.146698 
z"/>
<path fill="#000000" opacity="1.000000" stroke="none" 
	d="
M546.114624,321.327759 
	C540.884521,322.000549 539.704834,319.681427 539.753113,315.260040 
	C539.940613,298.096954 539.773376,280.930237 539.874817,263.765686 
	C539.889954,261.213104 538.581238,257.271759 542.896973,257.086670 
	C546.806641,256.918945 551.847595,254.580322 554.030762,260.575500 
	C554.362061,261.485168 555.041870,262.267914 555.493652,263.000916 
	C557.298950,263.450165 558.029541,262.068512 559.071167,261.360168 
	C568.120789,255.206253 577.760315,253.339172 587.848389,258.276764 
	C597.422791,262.962952 600.179077,271.725067 600.295837,281.589935 
	C600.429932,292.920807 600.189026,304.257416 600.423523,315.585052 
	C600.510925,319.805115 599.396179,321.470673 594.849915,321.433533 
	C582.659241,321.333954 582.663269,321.534241 582.673645,309.268890 
	C582.680298,301.436249 582.766968,293.601929 582.637146,285.771362 
	C582.479614,276.268890 579.040161,271.758240 572.118408,271.599121 
	C564.118286,271.415192 558.610718,277.049591 558.377869,286.147247 
	C558.143494,295.307648 558.283325,304.477509 558.253662,313.643219 
	C558.228882,321.325409 558.225403,321.325745 550.592712,321.331940 
	C549.259460,321.333008 547.926208,321.329895 546.114624,321.327759 
z"/>
<path fill="#000000" opacity="1.000000" stroke="none" 
	d="
M451.320496,292.905334 
	C451.190216,309.939545 441.183899,321.560913 425.657623,323.194855 
	C408.068176,325.045898 394.602661,316.217804 391.259857,300.623169 
	C391.016602,299.488220 390.783661,298.322205 390.778534,297.169586 
	C390.725128,285.170593 390.758270,273.171082 390.672211,261.172424 
	C390.651550,258.288361 391.713135,256.807465 394.720032,256.828766 
	C411.487061,256.947571 408.587585,254.836014 408.887878,269.643250 
	C409.063507,278.302979 408.832855,286.983368 409.358246,295.619568 
	C409.756409,302.164459 414.182068,305.781708 420.613647,305.905884 
	C427.822113,306.045074 432.409821,302.273956 432.741577,294.898529 
	C433.197968,284.751801 433.015198,274.576080 433.094177,264.412659 
	C433.152832,256.863678 433.158386,256.799500 440.553192,256.825562 
	C452.833405,256.868805 451.228271,255.699356 451.326660,267.421539 
	C451.396606,275.753815 451.327820,284.087250 451.320496,292.905334 
z"/>
<path fill="#000000" opacity="1.000000" stroke="none" 
	d="
M314.734131,298.000000 
	C314.729340,291.003052 314.557587,284.500244 314.785858,278.011475 
	C314.916962,274.283630 313.523193,272.680725 309.876923,273.144775 
	C305.017822,273.763092 303.113892,271.605103 303.694916,266.871399 
	C303.835907,265.722412 303.823425,264.530640 303.701355,263.377625 
	C303.281464,259.412598 304.707336,257.240845 308.986633,257.789368 
	C313.174164,258.326172 314.771454,256.861267 314.882721,252.327515 
	C315.178284,240.282272 320.978058,234.090118 332.920410,232.324097 
	C335.702209,231.912720 338.561371,231.926605 341.385468,231.918030 
	C348.965851,231.895020 349.104858,232.076416 349.037170,239.839081 
	C348.979187,246.487350 348.771210,246.693176 341.912354,246.889282 
	C334.874969,247.090500 332.706421,248.673615 332.401642,253.666473 
	C332.242798,256.267914 332.980713,257.865204 335.932526,257.796661 
	C338.929138,257.727112 341.930328,257.860168 344.927063,257.793335 
	C347.898865,257.727112 349.201599,259.176514 349.140533,262.048035 
	C349.133453,262.380859 349.146881,262.714355 349.158630,263.047272 
	C349.511505,273.044098 349.511658,273.044098 339.648041,273.130249 
	C333.154419,273.186951 333.148346,273.186981 333.143005,279.938385 
	C333.133545,291.932709 333.024841,303.928467 333.187317,315.920532 
	C333.242401,319.988007 331.852600,321.510742 327.683197,321.404083 
	C312.226044,321.008636 315.062592,323.441956 314.746307,308.495148 
	C314.675812,305.164825 314.735260,301.831757 314.734131,298.000000 
z"/>
<path fill="#000000" opacity="1.000000" stroke="none" 
	d="
M619.663696,288.002106 
	C619.662476,285.671204 619.661926,283.838562 619.661133,282.005920 
	C619.657288,273.373169 619.663330,273.338928 611.384094,271.867249 
	C607.686584,271.210022 607.221680,268.774414 609.235229,266.537415 
	C616.808472,258.123413 624.583923,249.880554 632.550537,241.837952 
	C634.927002,239.438797 637.078247,240.669724 637.277710,244.225998 
	C637.445496,247.216324 637.407898,250.223083 637.343506,253.220032 
	C637.288635,255.772202 638.478882,256.848877 640.964722,256.822723 
	C644.462708,256.785919 647.961609,256.853119 651.460144,256.846832 
	C653.883362,256.842499 655.221252,257.925690 655.218140,260.437866 
	C655.217957,260.604248 655.227234,260.771118 655.241577,260.936951 
	C656.190552,271.880402 656.089661,271.988312 644.901550,271.973450 
	C637.456482,271.963562 637.439819,271.963501 637.406921,279.429504 
	C637.384888,284.427399 637.272339,289.431091 637.461060,294.422333 
	C637.753296,302.152008 640.484680,304.747711 648.197327,305.039795 
	C655.283447,305.308167 655.285522,305.308167 655.311035,312.438171 
	C655.316406,313.937531 655.198059,315.445038 655.315308,316.934723 
	C655.565979,320.120087 654.256653,321.516113 650.993408,321.358734 
	C647.502502,321.190338 643.993225,321.417084 640.500549,321.269836 
	C628.881531,320.779877 620.478088,312.595978 619.779663,300.992554 
	C619.529785,296.841217 619.690735,292.665161 619.663696,288.002106 
z"/>
<path fill="#000000" opacity="1.000000" stroke="none" 
	d="
M376.223389,251.004028 
	C376.218475,272.652222 376.076996,293.802917 376.306488,314.949615 
	C376.360962,319.968353 374.870026,321.630920 369.780548,321.440582 
	C356.345642,320.938110 357.903290,323.244537 357.855255,309.377930 
	C357.775635,286.397125 357.945374,263.414490 357.700409,240.435944 
	C357.646515,235.377838 359.259705,233.744324 364.260498,233.834824 
	C378.139587,234.085999 376.061646,233.159622 376.219604,245.509155 
	C376.240906,247.174210 376.222595,248.839767 376.223389,251.004028 
z"/>
<path fill="#000000" opacity="1.000000" stroke="none" 
	d="
M817.767151,257.178162 
	C832.811096,256.055176 829.904175,255.658798 830.271790,269.811584 
	C830.349487,272.801819 828.937134,274.080292 826.070435,274.023743 
	C825.737976,274.017181 825.403076,274.060059 825.072449,274.036285 
	C813.069702,273.173523 808.814941,277.525330 809.206970,290.395813 
	C809.470337,299.040680 809.145752,307.702026 809.276855,316.353058 
	C809.329895,319.851959 808.315186,321.488434 804.468750,321.399139 
	C788.106018,321.019318 791.006897,323.564209 790.825867,308.227386 
	C790.651062,293.419128 790.715393,278.606659 790.844727,263.797546 
	C790.866699,261.285431 789.395264,257.324799 793.698975,257.029785 
	C797.599915,256.762360 802.719177,254.741272 804.398987,261.062073 
	C804.593018,261.792206 805.236755,262.402832 805.854797,263.348663 
	C809.464294,260.574371 813.007019,258.122009 817.767151,257.178162 
z"/>
<path fill="#000000" opacity="1.000000" stroke="none" 
	d="
M774.180542,256.680603 
	C782.258118,256.684296 782.258118,256.684296 782.281921,264.273071 
	C782.282959,264.605804 782.281860,264.938568 782.284119,265.271301 
	C782.347717,274.795197 782.463440,273.873474 773.640442,274.105896 
	C764.836731,274.337769 761.411987,277.893646 761.309448,286.794128 
	C761.196350,296.609009 761.125977,306.427856 761.292725,316.240662 
	C761.358948,320.138794 759.968750,321.495239 756.062256,321.398987 
	C740.292297,321.010406 742.987671,323.463257 742.820862,308.301208 
	C742.657959,293.495728 742.711609,278.686462 742.845398,263.880432 
	C742.868103,261.366364 741.437073,257.908783 745.634155,256.907440 
	C750.864075,255.659622 754.359314,257.005829 756.356140,261.013580 
	C756.711609,261.727112 757.203674,262.372589 757.834595,263.368042 
	C762.598572,259.522980 767.634521,256.769287 774.180542,256.680603 
z"/>
</svg>