<svg version="1.1" id="Layer_1" xmlns="http://www.w3.org/2000/svg" xmlns:xlink="http://www.w3.org/1999/xlink" x="0px" y="0px"
	 width="100%" viewBox="0 0 1280 720" enable-background="new 0 0 1280 720" xml:space="preserve">
<path fill="#000000" opacity="1.000000" stroke="none" 
	d="
M1281.000000,374.000000 
	C1281.000000,489.654633 1281.000000,605.309265 1281.000000,720.981934 
	C854.389832,720.981934 427.779602,720.981934 1.084709,720.981934 
	C1.084709,481.081482 1.084709,241.162949 1.084709,1.122196 
	C427.666656,1.122196 854.333313,1.122196 1281.000000,1.122233 
	C1281.000000,123.442886 1281.000000,245.763489 1280.574463,368.552216 
	C1279.764648,367.345673 1279.071045,365.675354 1279.047729,363.995697 
	C1278.927856,355.366852 1278.892944,346.734344 1279.020142,338.105927 
	C1279.064209,335.113861 1278.123535,333.240662 1275.011353,333.078094 
	C1262.185913,332.408173 1249.918213,333.728912 1239.742432,343.060364 
	C1236.969849,339.917786 1234.502197,336.963379 1232.019775,334.015503 
	C1232.004883,334.021973 1232.037231,334.006989 1231.814819,333.706604 
	C1230.359009,333.330597 1229.125610,333.254913 1227.431641,333.141052 
	C1218.335205,333.324890 1209.699219,333.546906 1200.629395,333.860962 
	C1199.775391,335.896088 1198.993042,337.838348 1198.988647,339.782349 
	C1198.913330,373.184265 1198.919312,406.586426 1198.976562,439.988434 
	C1198.979492,441.707794 1199.603271,443.426086 1200.254395,445.428101 
	C1215.480469,445.802429 1230.390259,445.927612 1245.299561,445.895599 
	C1246.143677,445.893799 1246.984863,444.601776 1247.884277,443.451721 
	C1247.977295,424.043701 1248.013672,405.094177 1248.335815,385.927368 
	C1250.840332,383.077911 1252.563354,379.311249 1255.391968,378.075104 
	C1259.816284,376.141693 1264.966309,375.774200 1269.851807,375.021942 
	C1273.533081,374.455078 1277.281494,374.324677 1281.000000,374.000000 
M112.581825,428.277649 
	C111.527161,427.975189 110.472496,427.672729 108.653267,427.079315 
	C105.073021,425.527191 100.560425,424.853668 98.101723,422.244598 
	C92.548218,416.351532 87.296684,409.943542 85.853874,401.419220 
	C85.542000,399.576691 84.362740,397.880981 82.835785,395.934387 
	C81.911911,395.637634 80.988861,395.085236 80.064026,395.082245 
	C64.353210,395.031006 48.641872,395.007568 32.931782,395.127045 
	C31.682791,395.136536 30.442114,396.239624 29.076273,397.760132 
	C29.383724,402.041656 29.631491,406.328430 30.009232,410.603729 
	C31.441700,426.816589 37.533550,441.311646 48.112247,453.422516 
	C58.108566,464.866608 69.797440,474.394318 85.283836,477.988525 
	C90.662811,479.236877 95.738449,481.959290 101.145012,482.885742 
	C111.336617,484.632141 121.667839,485.563751 132.704269,486.812561 
	C133.804947,484.855103 135.824707,482.914001 135.859924,480.937531 
	C136.126053,466.004791 136.028229,451.064972 135.958664,436.127777 
	C135.952103,434.722015 135.357498,433.319031 134.639633,431.369141 
	C133.760254,431.303040 132.880875,431.236938 131.233276,430.823334 
	C125.868568,430.272614 120.503853,429.721893 114.406265,429.012695 
	C113.917358,428.913818 113.428444,428.814972 112.581825,428.277649 
M203.907486,396.082153 
	C201.978714,395.730927 200.051620,395.086517 198.120880,395.075378 
	C184.135910,394.994781 170.149429,394.971130 156.165649,395.128876 
	C154.173996,395.151337 152.194473,396.249451 150.075119,397.764679 
	C150.715530,403.658722 151.177475,409.578644 152.027908,415.442230 
	C155.317215,438.121490 167.607697,455.281311 185.836578,468.245178 
	C191.590393,472.337097 198.658447,474.621735 205.209946,477.542999 
	C220.007767,484.141266 235.862869,485.664001 251.745941,486.958008 
	C254.603897,487.190826 257.046600,486.938629 257.021729,482.942657 
	C256.922180,466.970245 256.958252,450.996796 256.996063,435.023895 
	C257.002228,432.410828 256.099304,431.141296 253.277893,430.915070 
	C247.535660,430.454620 241.632370,430.324005 236.145721,428.798035 
	C229.884705,427.056702 223.036331,425.116913 218.206573,421.128204 
	C212.255783,416.213623 208.297211,409.031616 206.865952,400.938354 
	C206.575104,399.293640 205.441345,397.798035 203.907486,396.082153 
M409.046234,298.817352 
	C409.029083,312.795868 408.985291,326.774445 409.000122,340.752930 
	C409.037018,375.531006 409.100586,410.309052 409.684937,445.716522 
	C424.396851,445.749512 439.108795,445.782501 454.638153,445.856262 
	C455.417358,443.764038 456.867554,441.674408 456.875793,439.579132 
	C457.013672,404.462769 456.970734,369.345703 456.969757,334.228790 
	C456.969452,322.245819 457.006500,310.262665 456.946167,298.279999 
	C456.935364,296.131439 457.768402,293.264404 453.071503,293.065338 
	C439.982300,293.043243 426.892517,293.083618 413.804321,292.958038 
	C410.228302,292.923706 408.373077,294.019623 409.046234,298.817352 
M923.445801,297.217743 
	C921.286560,298.877625 918.885925,300.303955 917.012695,302.240448 
	C911.060852,308.393219 905.347046,314.775482 899.456360,320.988586 
	C896.628113,323.971710 893.479736,326.655273 890.703369,329.682678 
	C884.570801,336.369476 879.269470,344.023987 872.343323,349.720337 
	C865.282654,355.527191 865.409363,362.021057 866.588196,370.145813 
	C873.020142,370.145813 879.256104,370.145813 885.458252,370.145813 
	C885.987366,385.001923 886.466003,399.221466 887.006958,413.438599 
	C887.713806,432.015442 903.098206,444.781494 919.804749,445.848236 
	C931.082581,446.568329 942.444519,445.889465 953.765442,446.059692 
	C958.291443,446.127747 958.619751,443.671265 958.585327,440.097137 
	C958.486694,429.846283 958.775085,419.591034 958.618286,409.341980 
	C958.591248,407.576324 957.443848,404.623230 956.265991,404.315491 
	C953.250549,403.527527 949.856689,403.461273 946.739929,403.934631 
	C939.562439,405.024658 934.245667,401.672028 934.044983,395.082214 
	C933.832092,388.094940 934.061768,381.095276 933.973083,374.102631 
	C933.934875,371.087799 935.269104,369.919861 938.197449,369.983459 
	C942.524780,370.077423 946.855957,370.003357 951.185425,369.985016 
	C957.955383,369.956360 957.978149,369.950836 957.997925,363.409546 
	C958.021606,355.583221 958.064148,347.755798 957.951050,339.931000 
	C957.926147,338.210480 957.280884,336.498901 956.805603,333.996185 
	C955.125854,333.668976 953.450867,333.091309 951.765503,333.059479 
	C945.703064,332.944855 939.637024,333.014496 933.284790,333.014496 
	C933.104004,330.430664 932.957275,328.332733 932.940796,325.275940 
	C932.905518,318.502380 932.870239,311.728790 932.932800,304.125397 
	C932.951660,297.119568 932.311462,296.612183 923.445801,297.217743 
M375.142426,330.421051 
	C376.587891,326.841034 379.212494,325.598114 383.030945,325.925659 
	C386.503448,326.223541 390.031677,325.828857 393.515106,326.053314 
	C397.370209,326.301758 399.023193,324.644501 399.007996,320.886292 
	C398.970917,311.726135 398.892365,302.563904 399.053192,293.406372 
	C399.117401,289.751862 397.409790,288.853363 394.168793,288.922882 
	C387.842621,289.058655 381.498657,288.719910 375.186005,289.043671 
	C367.119324,289.457458 358.857025,289.404175 351.078583,291.242676 
	C341.343750,293.543579 333.808990,299.613251 331.973724,310.202789 
	C330.768066,317.159576 330.516998,324.293762 330.065033,331.362976 
	C329.896912,333.992340 329.549103,335.909760 326.363068,336.087921 
	C321.382416,336.366455 316.411804,336.823975 311.280701,337.217682 
	C311.298279,337.159760 311.121887,337.472870 311.119873,337.787109 
	C311.073120,345.113800 311.033783,352.440582 311.016357,359.767395 
	C310.987549,371.879639 310.998383,372.100861 322.943390,371.887604 
	C327.858124,371.799805 329.164520,373.521149 329.114471,378.223450 
	C328.898071,398.540497 329.010895,418.861084 329.004089,439.180359 
	C329.003387,441.301422 329.003998,443.422485 329.003998,445.834045 
	C331.126129,445.834045 332.591827,445.834045 334.981049,445.946075 
	C347.610291,445.905884 360.239563,445.865662 373.722656,445.931763 
	C378.037079,446.333282 376.973083,443.082581 376.978668,440.864319 
	C377.031860,419.748322 377.073029,398.631531 376.919708,377.516418 
	C376.890594,373.505676 378.018677,371.676514 382.279449,371.953918 
	C386.417999,372.223358 390.596252,371.839142 394.743256,372.034912 
	C398.003632,372.188873 399.117767,370.938324 399.055786,367.715515 
	C398.902344,359.737671 399.093689,351.753540 398.975128,343.774475 
	C398.937317,341.229675 398.360840,338.692841 397.091400,336.030426 
	C389.878693,336.030426 382.666016,336.030426 375.350220,336.030426 
	C375.135529,333.994385 374.982513,332.543304 375.142426,330.421051 
M588.860962,334.046936 
	C587.862976,333.707031 586.866455,333.076141 585.866760,333.071167 
	C572.655029,333.005371 559.442688,333.008270 546.230774,333.063904 
	C545.154907,333.068420 544.081116,333.583740 542.356140,334.441223 
	C542.242859,336.423981 542.033569,338.406616 542.031067,340.389526 
	C542.007385,359.180084 542.241516,377.974640 541.910217,396.759338 
	C541.778076,404.251373 536.949829,409.666565 529.468506,408.042297 
	C525.182739,407.111847 521.952759,403.270142 521.935669,397.855896 
	C521.874939,378.566681 521.938904,359.277039 521.870361,339.987885 
	C521.864258,338.258118 521.243103,336.530487 520.506409,334.158875 
	C520.112610,333.854797 519.720764,333.287537 519.324707,333.284637 
	C504.846741,333.178253 490.367950,333.073334 475.890930,333.183594 
	C474.977051,333.190552 474.076355,334.930420 473.052765,336.812256 
	C473.027588,357.639679 472.776886,378.470337 473.072723,399.293213 
	C473.219696,409.637848 475.596466,419.720428 482.536133,427.778259 
	C487.219879,433.216675 492.102905,439.401825 498.279968,442.448730 
	C512.075745,449.253632 526.982483,451.221771 542.618958,449.177765 
	C559.313721,446.995392 572.311768,439.591064 582.115234,426.117981 
	C588.790588,416.944031 589.630981,406.167664 589.886902,395.514984 
	C590.330872,377.030701 590.034180,358.527893 589.962097,340.033203 
	C589.955383,338.307617 589.334045,336.584412 588.860962,334.046936 
M134.320801,280.290649 
	C111.267616,280.196167 88.214485,280.086975 65.161232,280.013489 
	C54.045750,279.978088 42.930042,280.002533 31.814463,280.018433 
	C29.886728,280.021179 27.499701,279.533630 28.049166,283.828461 
	C28.036333,310.461548 28.022459,337.094666 28.011461,363.727753 
	C28.008987,369.720215 28.042433,375.712830 28.005367,381.705048 
	C27.992517,383.782440 28.255617,385.439514 31.924540,384.921967 
	C65.222054,384.870728 98.519577,384.819458 132.635681,384.865051 
	C136.206711,384.921478 135.936874,382.314484 135.938690,379.997223 
	C135.963623,348.144226 135.978668,316.291168 135.932632,284.438263 
	C135.930893,283.231354 135.287598,282.025360 134.320801,280.290649 
M253.838486,384.917328 
	C254.888077,383.571747 256.848846,382.229553 256.853821,380.880127 
	C256.973785,348.216888 256.885040,315.552826 256.859863,282.103546 
	C255.541946,281.402588 254.225113,280.092102 252.905975,280.089783 
	C219.276047,280.030762 185.645859,280.108582 151.182739,280.089447 
	C150.461517,281.309845 149.114410,282.528198 149.110397,283.750946 
	C149.004852,315.884460 149.065491,348.018555 149.010086,380.152344 
	C149.003860,383.766327 150.164185,385.579193 154.935944,384.909088 
	C187.635468,384.881470 220.334976,384.853851 253.838486,384.917328 
M975.933838,354.615204 
	C975.016357,356.146912 973.948120,357.609222 973.205750,359.221497 
	C968.130127,370.244293 966.562378,381.815033 966.894897,393.931305 
	C967.420532,413.079559 975.804016,427.815399 990.952209,438.832550 
	C1001.851379,446.759399 1014.743530,449.029236 1027.836670,449.898987 
	C1040.226929,450.722107 1052.317627,448.606445 1063.719849,443.818024 
	C1077.406006,438.070496 1087.354614,428.243927 1092.993652,414.335968 
	C1096.477905,405.742554 1096.994751,396.769623 1097.072266,387.576599 
	C1097.225586,369.380341 1090.461426,354.652344 1076.491821,343.157990 
	C1065.252075,333.909973 1051.613037,330.961121 1037.743896,329.123505 
	C1028.021973,327.835358 1018.528992,329.787048 1009.176575,332.758728 
	C1001.433472,335.218964 993.712341,337.563568 987.548096,343.138947 
	C983.692566,346.626099 980.068665,350.369324 975.933838,354.615204 
M699.983398,441.480774 
	C707.481750,438.982300 712.110962,432.865997 716.761292,427.202942 
	C720.624084,422.499054 723.354492,416.801941 726.189636,411.338806 
	C728.242493,407.383148 726.090210,405.962128 722.141174,405.990784 
	C710.649963,406.074249 699.153992,405.882202 687.668884,406.162750 
	C685.032898,406.227142 682.368469,407.597656 679.831116,408.643585 
	C676.076477,410.191223 672.576721,412.701874 668.696777,413.530762 
	C659.885010,415.413208 649.783386,412.182495 647.153992,400.304688 
	C660.986633,400.240326 674.536682,400.043030 688.084167,400.153992 
	C700.363525,400.254517 712.640198,400.816193 724.917725,400.803619 
	C726.282837,400.802216 728.727661,398.448639 728.822815,397.059265 
	C729.246033,390.882843 729.336487,384.637451 728.921753,378.458984 
	C727.914795,363.460419 719.297485,352.293518 708.699951,342.992737 
	C700.002319,335.359406 688.431335,332.866852 677.403687,329.964844 
	C664.292603,326.514465 651.554993,329.933411 639.143616,333.380096 
	C617.726624,339.327759 599.857605,364.156891 600.188782,386.572205 
	C600.265625,391.774353 601.202515,396.988586 602.034302,402.150421 
	C605.067627,420.974091 615.053528,435.081970 632.360168,442.928223 
	C654.630127,453.024628 677.174988,452.653564 699.983398,441.480774 
M742.010803,410.500000 
	C742.010803,422.234406 742.010803,433.968811 742.010803,445.512695 
	C758.534302,445.512695 774.084473,445.512695 790.007935,445.512695 
	C790.007935,442.850189 790.008362,440.698181 790.007812,438.546204 
	C790.003113,420.557709 789.929077,402.568695 790.063843,384.581238 
	C790.085510,381.691254 790.674316,378.678619 791.643982,375.951294 
	C793.240479,371.460876 797.647705,369.295593 802.496521,370.059540 
	C807.040039,370.775391 809.789795,373.916046 809.997925,378.974823 
	C810.164185,383.016602 810.085571,387.069183 810.084961,391.116974 
	C810.082642,407.605499 810.163208,424.094971 809.992859,440.581848 
	C809.949768,444.748077 811.506165,446.114746 815.564331,446.060638 
	C827.887451,445.896271 840.214294,446.024170 852.539734,446.015839 
	C858.443542,446.011810 859.130615,445.244476 859.001648,439.456268 
	C858.638794,423.183105 858.473755,406.903717 857.921936,390.637268 
	C857.580444,380.569427 857.772644,370.281708 855.650879,360.544739 
	C854.154968,353.679565 850.603638,345.835815 845.398743,341.555939 
	C838.439087,335.833160 829.260132,332.309631 820.507324,329.459839 
	C815.476318,327.821777 809.079956,328.256897 803.874634,329.757782 
	C795.498657,332.172882 787.599548,336.241882 779.195007,339.738586 
	C778.730713,333.035858 773.333557,332.651459 767.197632,332.927856 
	C760.881348,333.212402 754.528076,333.242584 748.217407,332.898499 
	C743.482666,332.640350 741.859497,334.139832 741.906860,339.045929 
	C742.133850,362.528778 742.010681,386.014984 742.010803,410.500000 
M1166.132446,334.419464 
	C1160.576050,336.806091 1155.019531,339.192719 1149.058228,341.753296 
	C1148.897705,341.487366 1147.907593,340.332581 1147.446167,338.995361 
	C1145.777954,334.161224 1142.548218,332.600677 1137.498169,332.896606 
	C1130.528931,333.304962 1123.503418,333.254333 1116.528442,332.891235 
	C1111.637329,332.636627 1109.840576,334.000916 1109.874390,339.236359 
	C1110.091919,372.871033 1109.980469,406.507812 1109.997925,440.143921 
	C1109.998901,441.917358 1110.189453,443.690643 1110.319092,445.939453 
	C1125.374146,445.939453 1139.989014,446.052216 1154.593140,445.711487 
	C1155.684814,445.686035 1157.612305,442.414673 1157.609985,440.654266 
	C1157.588135,424.050049 1157.020630,407.445740 1157.061157,390.842560 
	C1157.080933,382.713806 1160.803223,378.519104 1168.516357,377.091858 
	C1174.113770,376.056061 1179.814209,375.363983 1185.496704,375.081024 
	C1188.898071,374.911621 1190.139404,373.970001 1190.080933,370.462006 
	C1189.897949,359.475037 1189.955200,348.482666 1190.044067,337.493408 
	C1190.069214,334.393402 1189.051147,332.756104 1185.731934,332.979248 
	C1179.463867,333.400665 1173.190918,333.747620 1166.132446,334.419464 
z"/>
<path fill="#050B9C" opacity="1.000000" stroke="none" 
	d="
M1247.827393,443.910248 
	C1246.984863,444.601776 1246.143677,445.893799 1245.299561,445.895599 
	C1230.390259,445.927612 1215.480469,445.802429 1200.258057,444.956665 
	C1200.630249,435.111633 1201.800903,426.026794 1201.906250,416.929626 
	C1202.185791,392.782623 1201.989624,368.630249 1202.016479,344.480072 
	C1202.025269,336.664032 1202.688354,336.049805 1210.651611,336.007751 
	C1215.148438,335.984009 1219.655518,336.195496 1224.139648,335.956390 
	C1229.458130,335.672852 1233.618896,336.923950 1235.796631,342.363464 
	C1236.555176,344.257965 1237.950195,346.269653 1240.047607,343.248535 
	C1249.918213,333.728912 1262.185913,332.408173 1275.011353,333.078094 
	C1278.123535,333.240662 1279.064209,335.113861 1279.020142,338.105927 
	C1278.892944,346.734344 1278.927856,355.366852 1279.047729,363.995697 
	C1279.071045,365.675354 1279.764648,367.345673 1280.574463,369.010162 
	C1281.000000,370.388885 1281.000000,371.777802 1281.000000,373.583313 
	C1277.281494,374.324677 1273.533081,374.455078 1269.851807,375.021942 
	C1264.966309,375.774200 1259.816284,376.141693 1255.391968,378.075104 
	C1252.563354,379.311249 1250.840332,383.077911 1248.182007,386.151184 
	C1247.533325,388.556580 1247.152710,390.520020 1247.142944,392.485321 
	C1247.075562,405.984985 1247.032471,419.485291 1247.106079,432.984772 
	C1247.125854,436.627777 1247.575195,440.268494 1247.827393,443.910248 
z"/>
<path fill="#050B9B" opacity="1.000000" stroke="none" 
	d="
M976.137329,354.306396 
	C980.068665,350.369324 983.692566,346.626099 987.548096,343.138947 
	C993.712341,337.563568 1001.433472,335.218964 1009.176575,332.758728 
	C1018.528992,329.787048 1028.021973,327.835358 1037.743896,329.123505 
	C1051.613037,330.961121 1065.252075,333.909973 1076.491821,343.157990 
	C1090.461426,354.652344 1097.225586,369.380341 1097.072266,387.576599 
	C1096.994751,396.769623 1096.477905,405.742554 1092.993652,414.335968 
	C1087.354614,428.243927 1077.406006,438.070496 1063.719849,443.818024 
	C1052.317627,448.606445 1040.226929,450.722107 1027.836670,449.898987 
	C1014.743530,449.029236 1001.851379,446.759399 990.952209,438.832550 
	C975.804016,427.815399 967.420532,413.079559 966.894897,393.931305 
	C966.562378,381.815033 968.130127,370.244293 973.205750,359.221497 
	C973.948120,357.609222 975.016357,356.146912 976.137329,354.306396 
M1014.004395,390.433350 
	C1013.143188,398.065216 1020.997131,405.837646 1026.110229,407.591553 
	C1032.962402,409.941956 1041.222534,407.375214 1046.070435,401.417328 
	C1052.294067,393.768677 1050.465698,378.614960 1042.462036,374.031067 
	C1029.882568,366.826477 1014.478210,373.274780 1014.004395,390.433350 
z"/>
<path fill="#050B9B" opacity="1.000000" stroke="none" 
	d="
M699.658325,441.670532 
	C677.174988,452.653564 654.630127,453.024628 632.360168,442.928223 
	C615.053528,435.081970 605.067627,420.974091 602.034302,402.150421 
	C601.202515,396.988586 600.265625,391.774353 600.188782,386.572205 
	C599.857605,364.156891 617.726624,339.327759 639.143616,333.380096 
	C651.554993,329.933411 664.292603,326.514465 677.403687,329.964844 
	C688.431335,332.866852 700.002319,335.359406 708.699951,342.992737 
	C719.297485,352.293518 727.914795,363.460419 728.921753,378.458984 
	C729.336487,384.637451 729.246033,390.882843 728.822815,397.059265 
	C728.727661,398.448639 726.282837,400.802216 724.917725,400.803619 
	C712.640198,400.816193 700.363525,400.254517 688.084167,400.153992 
	C674.536682,400.043030 660.986633,400.240326 647.153992,400.304688 
	C649.783386,412.182495 659.885010,415.413208 668.696777,413.530762 
	C672.576721,412.701874 676.076477,410.191223 679.831116,408.643585 
	C682.368469,407.597656 685.032898,406.227142 687.668884,406.162750 
	C699.153992,405.882202 710.649963,406.074249 722.141174,405.990784 
	C726.090210,405.962128 728.242493,407.383148 726.189636,411.338806 
	C723.354492,416.801941 720.624084,422.499054 716.761292,427.202942 
	C712.110962,432.865997 707.481750,438.982300 699.658325,441.670532 
M676.272461,376.988373 
	C678.351746,376.988373 680.431030,376.988373 682.736023,376.988373 
	C680.350159,369.791656 672.452148,364.938782 664.325806,365.100220 
	C655.531494,365.274902 649.560242,369.653107 647.644165,376.993164 
	C656.799194,376.993164 666.062622,376.993164 676.272461,376.988373 
z"/>
<path fill="#050B9B" opacity="1.000000" stroke="none" 
	d="
M742.011353,410.000000 
	C742.010681,386.014984 742.133850,362.528778 741.906860,339.045929 
	C741.859497,334.139832 743.482666,332.640350 748.217407,332.898499 
	C754.528076,333.242584 760.881348,333.212402 767.197632,332.927856 
	C773.333557,332.651459 778.730713,333.035858 779.195007,339.738586 
	C787.599548,336.241882 795.498657,332.172882 803.874634,329.757782 
	C809.079956,328.256897 815.476318,327.821777 820.507324,329.459839 
	C829.260132,332.309631 838.439087,335.833160 845.398743,341.555939 
	C850.603638,345.835815 854.154968,353.679565 855.650879,360.544739 
	C857.772644,370.281708 857.580444,380.569427 857.921936,390.637268 
	C858.473755,406.903717 858.638794,423.183105 859.001648,439.456268 
	C859.130615,445.244476 858.443542,446.011810 852.539734,446.015839 
	C840.214294,446.024170 827.887451,445.896271 815.564331,446.060638 
	C811.506165,446.114746 809.949768,444.748077 809.992859,440.581848 
	C810.163208,424.094971 810.082642,407.605499 810.084961,391.116974 
	C810.085571,387.069183 810.164185,383.016602 809.997925,378.974823 
	C809.789795,373.916046 807.040039,370.775391 802.496521,370.059540 
	C797.647705,369.295593 793.240479,371.460876 791.643982,375.951294 
	C790.674316,378.678619 790.085510,381.691254 790.063843,384.581238 
	C789.929077,402.568695 790.003113,420.557709 790.007812,438.546204 
	C790.008362,440.698181 790.007935,442.850189 790.007935,445.512695 
	C774.084473,445.512695 758.534302,445.512695 742.010803,445.512695 
	C742.010803,433.968811 742.010803,422.234406 742.011353,410.000000 
z"/>
<path fill="#050B9B" opacity="1.000000" stroke="none" 
	d="
M154.000549,384.796753 
	C150.164185,385.579193 149.003860,383.766327 149.010086,380.152344 
	C149.065491,348.018555 149.004852,315.884460 149.110397,283.750946 
	C149.114410,282.528198 150.461517,281.309845 151.873642,280.374207 
	C155.124359,281.110413 157.682724,281.945068 160.244202,281.954742 
	C189.812714,282.066101 219.381744,282.032013 248.950455,282.107361 
	C251.578934,282.114044 254.206146,282.616669 256.833923,282.888947 
	C256.885040,315.552826 256.973785,348.216888 256.853821,380.880127 
	C256.848846,382.229553 254.888077,383.571747 253.037308,384.754578 
	C250.419495,384.420380 248.603058,384.101532 246.786209,384.099365 
	C218.166550,384.065155 189.546783,384.054932 160.927155,384.100342 
	C158.617920,384.104004 156.309402,384.554108 154.000549,384.796753 
z"/>
<path fill="#050B9B" opacity="1.000000" stroke="none" 
	d="
M30.986042,384.813721 
	C28.255617,385.439514 27.992517,383.782440 28.005367,381.705048 
	C28.042433,375.712830 28.008987,369.720215 28.011461,363.727753 
	C28.022459,337.094666 28.036333,310.461548 28.490692,283.227875 
	C31.906588,282.427399 34.880779,282.057068 37.855350,282.053986 
	C66.777237,282.024109 95.699303,282.097626 124.620949,282.014526 
	C128.062836,282.004639 131.502548,281.235931 134.943268,280.818939 
	C135.287598,282.025360 135.930893,283.231354 135.932632,284.438263 
	C135.978668,316.291168 135.963623,348.144226 135.938690,379.997223 
	C135.936874,382.314484 136.206711,384.921478 131.841217,384.736053 
	C129.230453,384.446228 127.414413,384.148590 125.597801,384.145081 
	C96.362602,384.088684 67.127327,384.052338 37.892117,384.075989 
	C35.589893,384.077850 33.288059,384.556580 30.986042,384.813721 
z"/>
<path fill="#050B9B" opacity="1.000000" stroke="none" 
	d="
M520.907593,334.801880 
	C521.243103,336.530487 521.864258,338.258118 521.870361,339.987885 
	C521.938904,359.277039 521.874939,378.566681 521.935669,397.855896 
	C521.952759,403.270142 525.182739,407.111847 529.468506,408.042297 
	C536.949829,409.666565 541.778076,404.251373 541.910217,396.759338 
	C542.241516,377.974640 542.007385,359.180084 542.031067,340.389526 
	C542.033569,338.406616 542.242859,336.423981 543.059204,334.321289 
	C545.388123,334.473114 547.013611,334.978424 548.639709,334.979980 
	C562.092468,334.992798 575.545227,334.912323 588.998047,334.860107 
	C589.334045,336.584412 589.955383,338.307617 589.962097,340.033203 
	C590.034180,358.527893 590.330872,377.030701 589.886902,395.514984 
	C589.630981,406.167664 588.790588,416.944031 582.115234,426.117981 
	C572.311768,439.591064 559.313721,446.995392 542.618958,449.177765 
	C526.982483,451.221771 512.075745,449.253632 498.279968,442.448730 
	C492.102905,439.401825 487.219879,433.216675 482.536133,427.778259 
	C475.596466,419.720428 473.219696,409.637848 473.072723,399.293213 
	C472.776886,378.470337 473.027588,357.639679 473.508789,336.261963 
	C477.114166,335.475891 480.261658,335.069672 483.413300,335.034271 
	C495.910675,334.893829 508.409393,334.869324 520.907593,334.801880 
z"/>
<path fill="#050B9B" opacity="1.000000" stroke="none" 
	d="
M334.057495,445.834045 
	C332.591827,445.834045 331.126129,445.834045 329.003998,445.834045 
	C329.003998,443.422485 329.003387,441.301422 329.004089,439.180359 
	C329.010895,418.861084 328.898071,398.540497 329.114471,378.223450 
	C329.164520,373.521149 327.858124,371.799805 322.943390,371.887604 
	C310.998383,372.100861 310.987549,371.879639 311.016357,359.767395 
	C311.033783,352.440582 311.073120,345.113800 311.119873,337.787109 
	C311.121887,337.472870 311.298279,337.159760 311.280701,337.217682 
	C316.411804,336.823975 321.382416,336.366455 326.363068,336.087921 
	C329.549103,335.909760 329.896912,333.992340 330.065033,331.362976 
	C330.516998,324.293762 330.768066,317.159576 331.973724,310.202789 
	C333.808990,299.613251 341.343750,293.543579 351.078583,291.242676 
	C358.857025,289.404175 367.119324,289.457458 375.186005,289.043671 
	C381.498657,288.719910 387.842621,289.058655 394.168793,288.922882 
	C397.409790,288.853363 399.117401,289.751862 399.053192,293.406372 
	C398.892365,302.563904 398.970917,311.726135 399.007996,320.886292 
	C399.023193,324.644501 397.370209,326.301758 393.515106,326.053314 
	C390.031677,325.828857 386.503448,326.223541 383.030945,325.925659 
	C379.212494,325.598114 376.587891,326.841034 374.896057,331.094604 
	C373.947449,334.515594 374.760742,336.724884 377.747711,336.738617 
	C384.507721,336.769714 391.269653,336.374298 398.030823,336.152344 
	C398.360840,338.692841 398.937317,341.229675 398.975128,343.774475 
	C399.093689,351.753540 398.902344,359.737671 399.055786,367.715515 
	C399.117767,370.938324 398.003632,372.188873 394.743256,372.034912 
	C390.596252,371.839142 386.417999,372.223358 382.279449,371.953918 
	C378.018677,371.676514 376.890594,373.505676 376.919708,377.516418 
	C377.073029,398.631531 377.031860,419.748322 376.978668,440.864319 
	C376.973083,443.082581 378.037079,446.333282 372.911987,445.768494 
	C359.420074,445.681519 346.738770,445.757782 334.057495,445.834045 
z"/>
<path fill="#050B9B" opacity="1.000000" stroke="none" 
	d="
M932.835022,304.955231 
	C932.870239,311.728790 932.905518,318.502380 932.796631,326.110413 
	C931.809692,333.928802 932.588013,334.908905 939.492004,334.951630 
	C945.301208,334.987610 951.111511,334.846130 956.921326,334.783203 
	C957.280884,336.498901 957.926147,338.210480 957.951050,339.931000 
	C958.064148,347.755798 958.021606,355.583221 957.997925,363.409546 
	C957.978149,369.950836 957.955383,369.956360 951.185425,369.985016 
	C946.855957,370.003357 942.524780,370.077423 938.197449,369.983459 
	C935.269104,369.919861 933.934875,371.087799 933.973083,374.102631 
	C934.061768,381.095276 933.832092,388.094940 934.044983,395.082214 
	C934.245667,401.672028 939.562439,405.024658 946.739929,403.934631 
	C949.856689,403.461273 953.250549,403.527527 956.265991,404.315491 
	C957.443848,404.623230 958.591248,407.576324 958.618286,409.341980 
	C958.775085,419.591034 958.486694,429.846283 958.585327,440.097137 
	C958.619751,443.671265 958.291443,446.127747 953.765442,446.059692 
	C942.444519,445.889465 931.082581,446.568329 919.804749,445.848236 
	C903.098206,444.781494 887.713806,432.015442 887.006958,413.438599 
	C886.466003,399.221466 885.987366,385.001923 885.458252,370.145813 
	C879.256104,370.145813 873.020142,370.145813 866.588196,370.145813 
	C865.409363,362.021057 865.282654,355.527191 872.343323,349.720337 
	C879.269470,344.023987 884.570801,336.369476 890.703369,329.682678 
	C893.479736,326.655273 896.628113,323.971710 899.456360,320.988586 
	C905.347046,314.775482 911.060852,308.393219 917.012695,302.240448 
	C918.885925,300.303955 921.286560,298.877625 923.918945,297.519409 
	C925.416870,298.549347 926.507507,299.201843 927.452576,300.022034 
	C929.289917,301.616669 931.045532,303.305450 932.835022,304.955231 
z"/>
<path fill="#050B9B" opacity="1.000000" stroke="none" 
	d="
M409.153473,445.087128 
	C409.100586,410.309052 409.037018,375.531006 409.000122,340.752930 
	C408.985291,326.774445 409.029083,312.795868 409.357788,298.179565 
	C411.856873,296.985626 414.037750,295.981995 416.233002,295.949493 
	C426.702362,295.794495 437.179352,296.053680 447.644440,295.793640 
	C449.785126,295.740479 451.886139,294.092010 454.005463,293.178925 
	C457.768402,293.264404 456.935364,296.131439 456.946167,298.279999 
	C457.006500,310.262665 456.969452,322.245819 456.969757,334.228790 
	C456.970734,369.345703 457.013672,404.462769 456.875793,439.579132 
	C456.867554,441.674408 455.417358,443.764038 453.848846,445.732788 
	C438.424194,445.435272 423.788818,445.261200 409.153473,445.087128 
z"/>
<path fill="#050C9C" opacity="1.000000" stroke="none" 
	d="
M1166.526123,334.272461 
	C1173.190918,333.747620 1179.463867,333.400665 1185.731934,332.979248 
	C1189.051147,332.756104 1190.069214,334.393402 1190.044067,337.493408 
	C1189.955200,348.482666 1189.897949,359.475037 1190.080933,370.462006 
	C1190.139404,373.970001 1188.898071,374.911621 1185.496704,375.081024 
	C1179.814209,375.363983 1174.113770,376.056061 1168.516357,377.091858 
	C1160.803223,378.519104 1157.080933,382.713806 1157.061157,390.842560 
	C1157.020630,407.445740 1157.588135,424.050049 1157.609985,440.654266 
	C1157.612305,442.414673 1155.684814,445.686035 1154.593140,445.711487 
	C1139.989014,446.052216 1125.374146,445.939453 1110.319092,445.939453 
	C1110.189453,443.690643 1109.998901,441.917358 1109.997925,440.143921 
	C1109.980469,406.507812 1110.091919,372.871033 1109.874390,339.236359 
	C1109.840576,334.000916 1111.637329,332.636627 1116.528442,332.891235 
	C1123.503418,333.254333 1130.528931,333.304962 1137.498169,332.896606 
	C1142.548218,332.600677 1145.777954,334.161224 1147.446167,338.995361 
	C1147.907593,340.332581 1148.897705,341.487366 1149.058228,341.753296 
	C1155.019531,339.192719 1160.576050,336.806091 1166.526123,334.272461 
z"/>
<path fill="#050B9B" opacity="1.000000" stroke="none" 
	d="
M204.696152,396.233673 
	C205.441345,397.798035 206.575104,399.293640 206.865952,400.938354 
	C208.297211,409.031616 212.255783,416.213623 218.206573,421.128204 
	C223.036331,425.116913 229.884705,427.056702 236.145721,428.798035 
	C241.632370,430.324005 247.535660,430.454620 253.277893,430.915070 
	C256.099304,431.141296 257.002228,432.410828 256.996063,435.023895 
	C256.958252,450.996796 256.922180,466.970245 257.021729,482.942657 
	C257.046600,486.938629 254.603897,487.190826 251.745941,486.958008 
	C235.862869,485.664001 220.007767,484.141266 205.209946,477.542999 
	C198.658447,474.621735 191.590393,472.337097 185.836578,468.245178 
	C167.607697,455.281311 155.317215,438.121490 152.027908,415.442230 
	C151.177475,409.578644 150.715530,403.658722 150.597778,397.316589 
	C162.875778,396.912964 174.631805,397.048340 186.386246,396.964478 
	C192.490967,396.920898 198.592941,396.489746 204.696152,396.233673 
z"/>
<path fill="#050B9B" opacity="1.000000" stroke="none" 
	d="
M131.941025,486.834015 
	C121.667839,485.563751 111.336617,484.632141 101.145012,482.885742 
	C95.738449,481.959290 90.662811,479.236877 85.283836,477.988525 
	C69.797440,474.394318 58.108566,464.866608 48.112247,453.422516 
	C37.533550,441.311646 31.441700,426.816589 30.009232,410.603729 
	C29.631491,406.328430 29.383724,402.041656 29.593086,397.325745 
	C46.149727,396.930206 62.189602,396.997314 78.229309,396.968201 
	C80.014374,396.964966 81.798462,396.414368 83.583008,396.117615 
	C84.362740,397.880981 85.542000,399.576691 85.853874,401.419220 
	C87.296684,409.943542 92.548218,416.351532 98.101723,422.244598 
	C100.560425,424.853668 105.073021,425.527191 109.027145,427.407227 
	C110.580528,428.062134 111.760025,428.389130 112.939529,428.716125 
	C113.428444,428.814972 113.917358,428.913818 114.994606,429.343231 
	C120.872124,432.187103 126.246719,433.763672 132.001495,431.170868 
	C132.880875,431.236938 133.760254,431.303040 134.624329,431.963074 
	C134.075821,435.109558 133.123840,437.655365 133.082260,440.215942 
	C132.907303,450.993042 133.004776,461.774567 133.001465,472.554474 
	C132.998276,482.963867 132.997681,482.963867 123.919403,484.379608 
	C126.123283,485.053925 129.032150,485.943970 131.941025,486.834015 
z"/>
<path fill="#000193" opacity="1.000000" stroke="none" 
	d="
M1239.742432,343.060364 
	C1237.950195,346.269653 1236.555176,344.257965 1235.796631,342.363464 
	C1233.618896,336.923950 1229.458130,335.672852 1224.139648,335.956390 
	C1219.655518,336.195496 1215.148438,335.984009 1210.651611,336.007751 
	C1202.688354,336.049805 1202.025269,336.664032 1202.016479,344.480072 
	C1201.989624,368.630249 1202.185791,392.782623 1201.906250,416.929626 
	C1201.800903,426.026794 1200.630249,435.111633 1199.941650,444.673492 
	C1199.603271,443.426086 1198.979492,441.707794 1198.976562,439.988434 
	C1198.919312,406.586426 1198.913330,373.184265 1198.988647,339.782349 
	C1198.993042,337.838348 1199.775391,335.896088 1201.004395,334.037048 
	C1211.886841,334.083740 1221.960815,334.046356 1232.034668,334.009003 
	C1234.502197,336.963379 1236.969849,339.917786 1239.742432,343.060364 
z"/>
<path fill="#1E24A6" opacity="1.000000" stroke="none" 
	d="
M134.632034,280.554810 
	C131.502548,281.235931 128.062836,282.004639 124.620949,282.014526 
	C95.699303,282.097626 66.777237,282.024109 37.855350,282.053986 
	C34.880779,282.057068 31.906588,282.427399 28.550789,282.755188 
	C27.499701,279.533630 29.886728,280.021179 31.814463,280.018433 
	C42.930042,280.002533 54.045750,279.978088 65.161232,280.013489 
	C88.214485,280.086975 111.267616,280.196167 134.632034,280.554810 
z"/>
<path fill="#1E24A6" opacity="1.000000" stroke="none" 
	d="
M256.846924,282.496246 
	C254.206146,282.616669 251.578934,282.114044 248.950455,282.107361 
	C219.381744,282.032013 189.812714,282.066101 160.244202,281.954742 
	C157.682724,281.945068 155.124359,281.110413 152.290131,280.410736 
	C185.645859,280.108582 219.276047,280.030762 252.905975,280.089783 
	C254.225113,280.092102 255.541946,281.402588 256.846924,282.496246 
z"/>
<path fill="#000193" opacity="1.000000" stroke="none" 
	d="
M132.322647,486.823303 
	C129.032150,485.943970 126.123283,485.053925 123.919403,484.379608 
	C132.997681,482.963867 132.998276,482.963867 133.001465,472.554474 
	C133.004776,461.774567 132.907303,450.993042 133.082260,440.215942 
	C133.123840,437.655365 134.075821,435.109558 134.822479,432.235840 
	C135.357498,433.319031 135.952103,434.722015 135.958664,436.127777 
	C136.028229,451.064972 136.126053,466.004791 135.859924,480.937531 
	C135.824707,482.914001 133.804947,484.855103 132.322647,486.823303 
z"/>
<path fill="#1E24A6" opacity="1.000000" stroke="none" 
	d="
M453.538483,293.122131 
	C451.886139,294.092010 449.785126,295.740479 447.644440,295.793640 
	C437.179352,296.053680 426.702362,295.794495 416.233002,295.949493 
	C414.037750,295.981995 411.856873,296.985626 409.424011,297.706848 
	C408.373077,294.019623 410.228302,292.923706 413.804321,292.958038 
	C426.892517,293.083618 439.982300,293.043243 453.538483,293.122131 
z"/>
<path fill="#1E24A6" opacity="1.000000" stroke="none" 
	d="
M83.209396,396.026001 
	C81.798462,396.414368 80.014374,396.964966 78.229309,396.968201 
	C62.189602,396.997314 46.149727,396.930206 29.653736,396.862915 
	C30.442114,396.239624 31.682791,395.136536 32.931782,395.127045 
	C48.641872,395.007568 64.353210,395.031006 80.064026,395.082245 
	C80.988861,395.085236 81.911911,395.637634 83.209396,396.026001 
z"/>
<path fill="#1E24A6" opacity="1.000000" stroke="none" 
	d="
M204.301819,396.157898 
	C198.592941,396.489746 192.490967,396.920898 186.386246,396.964478 
	C174.631805,397.048340 162.875778,396.912964 150.664886,396.859100 
	C152.194473,396.249451 154.173996,395.151337 156.165649,395.128876 
	C170.149429,394.971130 184.135910,394.994781 198.120880,395.075378 
	C200.051620,395.086517 201.978714,395.730927 204.301819,396.157898 
z"/>
<path fill="#1E24A6" opacity="1.000000" stroke="none" 
	d="
M31.455292,384.867859 
	C33.288059,384.556580 35.589893,384.077850 37.892117,384.075989 
	C67.127327,384.052338 96.362602,384.088684 125.597801,384.145081 
	C127.414413,384.148590 129.230453,384.446228 131.431931,384.687622 
	C98.519577,384.819458 65.222054,384.870728 31.455292,384.867859 
z"/>
<path fill="#1E24A6" opacity="1.000000" stroke="none" 
	d="
M154.468246,384.852905 
	C156.309402,384.554108 158.617920,384.104004 160.927155,384.100342 
	C189.546783,384.054932 218.166550,384.065155 246.786209,384.099365 
	C248.603058,384.101532 250.419495,384.420380 252.635315,384.709045 
	C220.334976,384.853851 187.635468,384.881470 154.468246,384.852905 
z"/>
<path fill="#1E24A6" opacity="1.000000" stroke="none" 
	d="
M520.707031,334.480347 
	C508.409393,334.869324 495.910675,334.893829 483.413300,335.034271 
	C480.261658,335.069672 477.114166,335.475891 473.567169,335.787903 
	C474.076355,334.930420 474.977051,333.190552 475.890930,333.183594 
	C490.367950,333.073334 504.846741,333.178253 519.324707,333.284637 
	C519.720764,333.287537 520.112610,333.854797 520.707031,334.480347 
z"/>
<path fill="#1E24A6" opacity="1.000000" stroke="none" 
	d="
M588.929504,334.453522 
	C575.545227,334.912323 562.092468,334.992798 548.639709,334.979980 
	C547.013611,334.978424 545.388123,334.473114 543.384338,334.031494 
	C544.081116,333.583740 545.154907,333.068420 546.230774,333.063904 
	C559.442688,333.008270 572.655029,333.005371 585.866760,333.071167 
	C586.866455,333.076141 587.862976,333.707031 588.929504,334.453522 
z"/>
<path fill="#1E24A6" opacity="1.000000" stroke="none" 
	d="
M1247.884277,443.451721 
	C1247.575195,440.268494 1247.125854,436.627777 1247.106079,432.984772 
	C1247.032471,419.485291 1247.075562,405.984985 1247.142944,392.485321 
	C1247.152710,390.520020 1247.533325,388.556580 1247.896240,386.368469 
	C1248.013672,405.094177 1247.977295,424.043701 1247.884277,443.451721 
z"/>
<path fill="#1E24A6" opacity="1.000000" stroke="none" 
	d="
M1232.019775,334.015503 
	C1221.960815,334.046356 1211.886841,334.083740 1201.438110,333.945038 
	C1209.699219,333.546906 1218.335205,333.324890 1227.765747,333.271271 
	C1229.719238,333.628784 1230.878296,333.817871 1232.037231,334.006958 
	C1232.037231,334.006989 1232.004883,334.021973 1232.019775,334.015503 
z"/>
<path fill="#1E24A6" opacity="1.000000" stroke="none" 
	d="
M956.863464,334.389709 
	C951.111511,334.846130 945.301208,334.987610 939.492004,334.951630 
	C932.588013,334.908905 931.809692,333.928802 932.731567,326.589844 
	C932.957275,328.332733 933.104004,330.430664 933.284790,333.014496 
	C939.637024,333.014496 945.703064,332.944855 951.765503,333.059479 
	C953.450867,333.091309 955.125854,333.668976 956.863464,334.389709 
z"/>
<path fill="#1E24A6" opacity="1.000000" stroke="none" 
	d="
M409.419189,445.401825 
	C423.788818,445.261200 438.424194,445.435272 453.440125,445.712402 
	C439.108795,445.782501 424.396851,445.749512 409.419189,445.401825 
z"/>
<path fill="#1E24A6" opacity="1.000000" stroke="none" 
	d="
M334.519287,445.890076 
	C346.738770,445.757782 359.420074,445.681519 372.485077,445.715332 
	C360.239563,445.865662 347.610291,445.905884 334.519287,445.890076 
z"/>
<path fill="#1E24A6" opacity="1.000000" stroke="none" 
	d="
M131.617386,430.997101 
	C126.246719,433.763672 120.872124,432.187103 115.361046,429.422485 
	C120.503853,429.721893 125.868568,430.272614 131.617386,430.997101 
z"/>
<path fill="#1E24A6" opacity="1.000000" stroke="none" 
	d="
M932.883911,304.540314 
	C931.045532,303.305450 929.289917,301.616669 927.452576,300.022034 
	C926.507507,299.201843 925.416870,298.549347 924.279175,297.499512 
	C932.311462,296.612183 932.951660,297.119568 932.883911,304.540314 
z"/>
<path fill="#1E24A6" opacity="1.000000" stroke="none" 
	d="
M397.561096,336.091370 
	C391.269653,336.374298 384.507721,336.769714 377.747711,336.738617 
	C374.760742,336.724884 373.947449,334.515594 374.739624,331.430176 
	C374.982513,332.543304 375.135529,333.994385 375.350220,336.030426 
	C382.666016,336.030426 389.878693,336.030426 397.561096,336.091370 
z"/>
<path fill="#1E24A6" opacity="1.000000" stroke="none" 
	d="
M112.760681,428.496887 
	C111.760025,428.389130 110.580528,428.062134 109.409424,427.552704 
	C110.472496,427.672729 111.527161,427.975189 112.760681,428.496887 
z"/>
<path fill="#000193" opacity="1.000000" stroke="none" 
	d="
M1231.814819,333.706604 
	C1230.878296,333.817871 1229.719238,333.628784 1228.226318,333.309479 
	C1229.125610,333.254913 1230.359009,333.330597 1231.814819,333.706604 
z"/>
<path fill="#000000" opacity="1.000000" stroke="none" 
	d="
M1014.003906,389.997284 
	C1014.478210,373.274780 1029.882568,366.826477 1042.462036,374.031067 
	C1050.465698,378.614960 1052.294067,393.768677 1046.070435,401.417328 
	C1041.222534,407.375214 1032.962402,409.941956 1026.110229,407.591553 
	C1020.997131,405.837646 1013.143188,398.065216 1014.003906,389.997284 
z"/>
<path fill="#000000" opacity="1.000000" stroke="none" 
	d="
M675.799316,376.990784 
	C666.062622,376.993164 656.799194,376.993164 647.644165,376.993164 
	C649.560242,369.653107 655.531494,365.274902 664.325806,365.100220 
	C672.452148,364.938782 680.350159,369.791656 682.736023,376.988373 
	C680.431030,376.988373 678.351746,376.988373 675.799316,376.990784 
z"/>
</svg>